<?xml version="1.0" encoding="iso-8859-1"?>
<!-- Generator: Adobe Illustrator 16.0.0, SVG Export Plug-In . SVG Version: 6.00 Build 0)  -->
<!DOCTYPE svg PUBLIC "-//W3C//DTD SVG 1.1//EN" "http://www.w3.org/Graphics/SVG/1.1/DTD/svg11.dtd">
<svg version="1.1" id="Capa_1" xmlns="http://www.w3.org/2000/svg" xmlns:xlink="http://www.w3.org/1999/xlink" x="0px" y="0px"
	 width="402.158px" height="402.158px" viewBox="0 0 402.158 402.158" style="enable-background:new 0 0 402.158 402.158;"
	 xml:space="preserve">
<g>
	<g>
		<path d="M399.267,125.531c-2.824-3.863-7.322-6.146-12.107-6.146H15c-4.192,0-8.194,1.755-11.034,4.84
			c-2.841,3.084-4.26,7.217-3.915,11.396l19.009,230c0.643,7.779,7.144,13.765,14.949,13.765h279.969
			c6.531,0,12.312-4.228,14.294-10.451l73.182-230.001C402.902,134.373,402.092,129.393,399.267,125.531z M57.939,338.392
			L43.227,160.377h82.413L68.997,338.393L57.939,338.392L57.939,338.392z"/>
		<path d="M257.802,52.593l-44.91-0.002l9.296-23.405c0.724-1.816,0.24-3.891-1.209-5.201c-1.446-1.313-3.559-1.588-5.295-0.689
			l-70.666,36.526c-1.555,0.805-2.532,2.41-2.531,4.161c-0.001,1.751,0.977,3.354,2.532,4.162l70.665,36.525
			c1.736,0.897,3.849,0.623,5.296-0.69c1.448-1.312,1.932-3.386,1.208-5.2l-9.297-23.407h44.911c2.587,0,4.686-2.097,4.686-4.684
			V57.278c0-1.243-0.494-2.435-1.373-3.313C260.235,53.085,259.045,52.591,257.802,52.593z"/>
	</g>
</g>
<g>
</g>
<g>
</g>
<g>
</g>
<g>
</g>
<g>
</g>
<g>
</g>
<g>
</g>
<g>
</g>
<g>
</g>
<g>
</g>
<g>
</g>
<g>
</g>
<g>
</g>
<g>
</g>
<g>
</g>
</svg>
