<?xml version="1.0" encoding="iso-8859-1"?>
<!-- Generator: Adobe Illustrator 16.0.0, SVG Export Plug-In . SVG Version: 6.00 Build 0)  -->
<!DOCTYPE svg PUBLIC "-//W3C//DTD SVG 1.1//EN" "http://www.w3.org/Graphics/SVG/1.1/DTD/svg11.dtd">
<svg version="1.1" id="Capa_1" xmlns="http://www.w3.org/2000/svg" xmlns:xlink="http://www.w3.org/1999/xlink" x="0px" y="0px"
	 width="344.537px" height="344.537px" viewBox="0 0 344.537 344.537" style="enable-background:new 0 0 344.537 344.537;"
	 xml:space="preserve">
<g>
	<path d="M337.343,268.753L185.231,7.453C182.544,2.839,177.606,0,172.268,0c-5.339,0-10.277,2.839-12.963,7.453L7.275,268.613
		c-0.094,0.16-0.185,0.324-0.272,0.488c-3.549,6.653-5.348,12.539-5.348,17.488c0,31.801,45.046,42.896,59.848,46.545
		c29.841,7.354,69.178,11.402,110.766,11.402c41.587,0,80.925-4.051,110.763-11.402c14.803-3.646,59.85-14.744,59.85-46.545
		C342.882,279.341,339.409,272.301,337.343,268.753z M172.268,302.311c-34.226,0-67.204-2.981-92.86-8.397
		c-11.859-2.503-20.173-5.101-25.889-7.323c5.715-2.224,14.028-4.82,25.891-7.322c25.642-5.416,58.619-8.396,92.858-8.396
		s67.217,2.98,92.862,8.396c11.859,2.502,20.174,5.1,25.889,7.322c-5.719,2.225-14.033,4.821-25.891,7.323
		C239.472,299.329,206.494,302.311,172.268,302.311z M172.268,228.643c-35.71,0-69.911,3.004-97.771,8.526l97.771-167.953
		L270.04,237.17C242.192,231.648,207.992,228.643,172.268,228.643z"/>
</g>
<g>
</g>
<g>
</g>
<g>
</g>
<g>
</g>
<g>
</g>
<g>
</g>
<g>
</g>
<g>
</g>
<g>
</g>
<g>
</g>
<g>
</g>
<g>
</g>
<g>
</g>
<g>
</g>
<g>
</g>
</svg>
