<?xml version="1.0" encoding="iso-8859-1"?>
<!-- Generator: Adobe Illustrator 16.0.0, SVG Export Plug-In . SVG Version: 6.00 Build 0)  -->
<!DOCTYPE svg PUBLIC "-//W3C//DTD SVG 1.1//EN" "http://www.w3.org/Graphics/SVG/1.1/DTD/svg11.dtd">
<svg version="1.1" id="Capa_1" xmlns="http://www.w3.org/2000/svg" xmlns:xlink="http://www.w3.org/1999/xlink" x="0px" y="0px"
	 width="449.809px" height="449.809px" viewBox="0 0 449.809 449.809" style="enable-background:new 0 0 449.809 449.809;"
	 xml:space="preserve">
<g>
	<g>
		<g>
			<path d="M449.809,93.905V66.096c0-5.522-4.479-10-10-10h-27.811c-5.15,0-9.395,3.896-9.939,8.904H47.749
				c-0.546-5.008-4.788-8.904-9.94-8.904H10c-5.522,0-10,4.478-10,10v27.809c0,5.152,3.896,9.396,8.904,9.94v242.12
				C3.896,346.51,0,350.753,0,355.903v27.81c0,5.522,4.478,10,10,10h27.809c5.152,0,9.395-3.896,9.94-8.902h354.312
				c0.546,5.008,4.787,8.902,9.939,8.902h27.809c5.521,0,10-4.478,10-10v-27.81c0-5.15-3.896-9.396-8.903-9.938v-242.12
				C445.912,103.301,449.809,99.057,449.809,93.905z M410.904,103.845v242.12c-4.648,0.506-8.34,4.197-8.847,8.845H47.748
				c-0.506-4.646-4.197-8.339-8.845-8.845v-242.12c4.647-0.506,8.339-4.197,8.845-8.845H402.06
				C402.564,99.647,406.256,103.34,410.904,103.845z"/>
			<path d="M238.808,201h-27.809c-5.522,0-10,4.478-10,10v27.81c0,5.521,4.478,10,10,10h27.809c5.522,0,10-4.479,10-10V211
				C248.808,205.478,244.33,201,238.808,201z"/>
		</g>
	</g>
</g>
<g>
</g>
<g>
</g>
<g>
</g>
<g>
</g>
<g>
</g>
<g>
</g>
<g>
</g>
<g>
</g>
<g>
</g>
<g>
</g>
<g>
</g>
<g>
</g>
<g>
</g>
<g>
</g>
<g>
</g>
</svg>
