<?xml version="1.0" encoding="iso-8859-1"?>
<!-- Generator: Adobe Illustrator 16.0.0, SVG Export Plug-In . SVG Version: 6.00 Build 0)  -->
<!DOCTYPE svg PUBLIC "-//W3C//DTD SVG 1.1//EN" "http://www.w3.org/Graphics/SVG/1.1/DTD/svg11.dtd">
<svg version="1.1" id="Capa_1" xmlns="http://www.w3.org/2000/svg" xmlns:xlink="http://www.w3.org/1999/xlink" x="0px" y="0px"
	 width="414.043px" height="414.043px" viewBox="0 0 414.043 414.043" style="enable-background:new 0 0 414.043 414.043;"
	 xml:space="preserve">
<g>
	<g>
		<g>
			<path d="M347.273,181.404H80.436c-3.59,0-6.5,2.91-6.5,6.5v219.639c0,3.59,2.91,6.5,6.5,6.5h266.838c3.59,0,6.5-2.91,6.5-6.5
				V187.904C353.773,184.314,350.863,181.404,347.273,181.404z M327.958,388.227H99.753V207.221h228.205V388.227L327.958,388.227z"
				/>
			<path d="M129.313,296.72c0.411,1.954,1.699,3.612,3.492,4.493c1.792,0.882,3.89,0.891,5.691,0.022
				c6.88-3.317,14.013-9.591,22.273-16.856c6.44-5.67,13.101-11.533,19.26-15.555c2.886-1.886,4.973-2.904,6.4-3.452
				c-1.643,5.27-6.748,14.384-9.396,19.111c-4.681,8.362-9.52,17.012-11.791,25.281c-5.323,19.374,5.921,28.465,10.965,31.449
				c3.715,2.234,7.896,3.32,12.784,3.32c12.928,0,29.169-7.806,47.952-16.833l0.143-0.066c9.348-4.487,19.013-9.13,27.17-12.136
				c1.253-0.461,2.449-0.875,3.589-1.24c-2.241,3.203-6.627,9.562-15.459,22.493c-1.407,2.063-1.51,4.749-0.264,6.912
				c1.166,2.023,3.319,3.253,5.63,3.253c0.16,0,0.322-0.006,0.483-0.018l20.946-1.562c1.895-0.141,3.632-1.104,4.757-2.634
				c3.663-4.989,21.738-30.476,17.754-42.444c-2.321-6.756-6.937-11.741-13.344-14.422c-3.396-1.423-7.088-2.114-11.283-2.114
				c-14.577,0-32.982,8.846-52.469,18.21c-8.879,4.265-23.124,11.106-31.17,13.339c1.897-4.954,5.953-12.203,8.538-16.823
				c4.604-8.226,9.367-16.729,11.812-25.018c5.29-17.932-2.913-27.56-8.274-31.702c-0.024-0.021-0.129-0.099-0.154-0.116
				c-4.909-3.684-10.354-5.55-16.182-5.55c-16.737,0-33.656,14.883-47.251,26.843c-5.836,5.129-10.341,8.979-13.358,11.101
				c-2.127,1.495-3.158,4.113-2.623,6.657L129.313,296.72z"/>
			<path d="M106.107,168.82h213.199c2.157,0,4.174-1.07,5.383-2.857s1.453-4.057,0.651-6.06L284.368,57.597
				c-0.641-1.601-1.892-2.88-3.477-3.559c-1.585-0.679-3.374-0.699-4.977-0.059c0,0-37.679,15.156-50.12,20.073
				s-16.024-1.75-19.071-8.831c-1.999-4.646-19.731-49.267-19.731-49.267c-1.335-3.333-5.117-4.953-8.451-3.618L64.354,58.066
				c-3.332,1.335-4.952,5.118-3.617,8.451l39.334,98.217C101.062,167.204,103.451,168.82,106.107,168.82z"/>
			<path d="M221.3,43.398c1.019,2.54,3.457,4.085,6.036,4.085c0.806,0,1.622-0.15,2.415-0.468l34.508-13.82
				c2.438-0.978,4.052-3.33,4.083-5.959c0.028-2.629-1.526-5.018-3.944-6.052L216.079,0.523c-2.418-1.033-5.219-0.509-7.099,1.328
				s-2.469,4.626-1.491,7.066L221.3,43.398z"/>
		</g>
	</g>
</g>
<g>
</g>
<g>
</g>
<g>
</g>
<g>
</g>
<g>
</g>
<g>
</g>
<g>
</g>
<g>
</g>
<g>
</g>
<g>
</g>
<g>
</g>
<g>
</g>
<g>
</g>
<g>
</g>
<g>
</g>
</svg>
