<?xml version="1.0" encoding="iso-8859-1"?>
<!-- Generator: Adobe Illustrator 16.0.0, SVG Export Plug-In . SVG Version: 6.00 Build 0)  -->
<!DOCTYPE svg PUBLIC "-//W3C//DTD SVG 1.1//EN" "http://www.w3.org/Graphics/SVG/1.1/DTD/svg11.dtd">
<svg version="1.1" id="Capa_1" xmlns="http://www.w3.org/2000/svg" xmlns:xlink="http://www.w3.org/1999/xlink" x="0px" y="0px"
	 width="380.999px" height="380.999px" viewBox="0 0 380.999 380.999" style="enable-background:new 0 0 380.999 380.999;"
	 xml:space="preserve">
<g>
	<g>
		<g>
			<path d="M315.018,71.913C312.952,30.916,259.42,0,190.497,0C121.605,0,68.095,30.916,66.029,71.913l-0.054,242.397
				c0,0,10.969,66.688,124.521,66.688c113.551,0,124.52-66.688,124.52-66.688l0.008-242.122L315.018,71.913z M259.243,333.276
				c-18.095,9.7-42.509,15.045-68.746,15.045s-50.651-5.344-68.745-15.044c-14.438-7.743-23.057-17.689-23.057-26.607
				c0-8.919,8.619-18.865,23.057-26.604c18.09-9.701,42.504-15.046,68.745-15.046s50.654,5.345,68.746,15.048
				c14.438,7.737,23.058,17.686,23.058,26.604C282.297,315.588,273.678,325.534,259.243,333.276z M121.752,47.724
				c18.094-9.702,42.508-15.045,68.745-15.045s50.651,5.343,68.746,15.044C273.681,55.466,282.3,65.412,282.3,74.33
				c0,8.919-8.619,18.865-23.058,26.605c-18.091,9.702-42.505,15.046-68.746,15.046s-50.654-5.344-68.746-15.047
				c-14.437-7.739-23.056-17.686-23.056-26.604C98.696,65.412,107.315,55.466,121.752,47.724z M283.088,124.704v131.592
				c-23.217-15.323-56.228-23.956-92.591-23.956c-36.365,0-69.376,8.633-92.593,23.957V124.703
				c23.217,15.324,56.228,23.957,92.593,23.957S259.872,140.027,283.088,124.704z"/>
		</g>
	</g>
</g>
<g>
</g>
<g>
</g>
<g>
</g>
<g>
</g>
<g>
</g>
<g>
</g>
<g>
</g>
<g>
</g>
<g>
</g>
<g>
</g>
<g>
</g>
<g>
</g>
<g>
</g>
<g>
</g>
<g>
</g>
</svg>
