<?xml version="1.0" encoding="iso-8859-1"?>
<!-- Generator: Adobe Illustrator 16.0.0, SVG Export Plug-In . SVG Version: 6.00 Build 0)  -->
<!DOCTYPE svg PUBLIC "-//W3C//DTD SVG 1.1//EN" "http://www.w3.org/Graphics/SVG/1.1/DTD/svg11.dtd">
<svg version="1.1" id="Capa_1" xmlns="http://www.w3.org/2000/svg" xmlns:xlink="http://www.w3.org/1999/xlink" x="0px" y="0px"
	 width="388.645px" height="388.644px" viewBox="0 0 388.645 388.644" style="enable-background:new 0 0 388.645 388.644;"
	 xml:space="preserve">
<g>
	<path d="M387.91,149.426c-1.765-5.43-6.458-9.389-12.107-10.209l-116.105-16.871L207.773,17.138
		c-2.527-5.121-7.742-8.361-13.452-8.361c-5.71,0-10.925,3.24-13.451,8.361l-51.923,105.207L12.843,139.217
		c-5.65,0.82-10.344,4.779-12.108,10.209c-1.765,5.43-0.293,11.391,3.795,15.377l84.014,81.893L68.711,362.332
		c-0.966,5.627,1.348,11.314,5.967,14.672c4.619,3.355,10.745,3.797,15.797,1.142l103.847-54.597l103.847,54.597
		c2.195,1.153,4.591,1.723,6.979,1.723c3.109,0,6.206-0.965,8.818-2.863c4.619-3.356,6.934-9.045,5.968-14.672l-19.833-115.637
		l84.014-81.893C388.203,160.816,389.675,154.855,387.91,149.426z"/>
</g>
<g>
</g>
<g>
</g>
<g>
</g>
<g>
</g>
<g>
</g>
<g>
</g>
<g>
</g>
<g>
</g>
<g>
</g>
<g>
</g>
<g>
</g>
<g>
</g>
<g>
</g>
<g>
</g>
<g>
</g>
</svg>
