<?xml version="1.0" encoding="iso-8859-1"?>
<!-- Generator: Adobe Illustrator 16.0.0, SVG Export Plug-In . SVG Version: 6.00 Build 0)  -->
<!DOCTYPE svg PUBLIC "-//W3C//DTD SVG 1.1//EN" "http://www.w3.org/Graphics/SVG/1.1/DTD/svg11.dtd">
<svg version="1.1" id="Capa_1" xmlns="http://www.w3.org/2000/svg" xmlns:xlink="http://www.w3.org/1999/xlink" x="0px" y="0px"
	 width="338.168px" height="338.168px" viewBox="0 0 338.168 338.168" style="enable-background:new 0 0 338.168 338.168;"
	 xml:space="preserve">
<g>
	<g>
		<g>
			<path d="M244.543,143.875l-62.193-37.439c-0.89-0.535-2.018-0.466-2.834,0.176c-0.814,0.641-1.149,1.72-0.843,2.711
				l21.627,69.298c0.316,1.012,1.236,1.715,2.298,1.754c0.029,0,0.062,0,0.091,0c1.022,0,1.948-0.625,2.325-1.584l10.406-26.46
				l28.171-3.836c1.051-0.143,1.897-0.934,2.111-1.972C245.917,145.483,245.452,144.422,244.543,143.875z"/>
			<path d="M335.666,244.567h-2.14c-1.548-62.94-39.449-119.908-96.882-145.883h56.507v1.75c0,1.381,1.118,2.5,2.5,2.5h24.5
				c1.381,0,2.5-1.119,2.5-2.5v-24.5c0-1.381-1.119-2.5-2.5-2.5h-24.5c-1.382,0-2.5,1.119-2.5,2.5v1.75H183.833v-2.25
				c0-1.104-0.896-2-2-2h-25.5c-1.104,0-2,0.896-2,2v2.25H45.015v-1.75c0-1.381-1.119-2.5-2.5-2.5h-24.5c-1.381,0-2.5,1.119-2.5,2.5
				v24.5c0,1.381,1.119,2.5,2.5,2.5h24.5c1.381,0,2.5-1.119,2.5-2.5v-1.75h56.506C44.089,124.66,6.187,181.628,4.64,244.567H2.5
				c-1.381,0-2.5,1.119-2.5,2.5v15.166c0,1.381,1.119,2.5,2.5,2.5h15.166c1.381,0,2.5-1.119,2.5-2.5v-15.166
				c0-1.381-1.119-2.5-2.5-2.5h-2.025c0.903-34.288,13.51-67.682,35.529-94.081c21.822-26.165,52.028-44.553,85.063-51.785
				l18.101-0.004v2.237c0,1.104,0.896,2,2,2h25.5c1.104,0,2-0.896,2-2v-2.245l18.229,0.04c32.983,7.251,63.141,25.625,84.935,51.756
				c22.02,26.4,34.626,59.792,35.529,94.081h-2.025c-1.381,0-2.5,1.119-2.5,2.5v15.166c0,1.381,1.119,2.5,2.5,2.5h15.166
				c1.381,0,2.5-1.119,2.5-2.5v-15.166C338.166,245.688,337.047,244.567,335.666,244.567z M13.166,257.733H7v-6.166h6.166V257.733z
				 M331.166,257.733H325v-6.166h6.166V257.733z"/>
		</g>
	</g>
</g>
<g>
</g>
<g>
</g>
<g>
</g>
<g>
</g>
<g>
</g>
<g>
</g>
<g>
</g>
<g>
</g>
<g>
</g>
<g>
</g>
<g>
</g>
<g>
</g>
<g>
</g>
<g>
</g>
<g>
</g>
</svg>
