<?xml version="1.0" encoding="iso-8859-1"?>
<!-- Generator: Adobe Illustrator 16.0.0, SVG Export Plug-In . SVG Version: 6.00 Build 0)  -->
<!DOCTYPE svg PUBLIC "-//W3C//DTD SVG 1.1//EN" "http://www.w3.org/Graphics/SVG/1.1/DTD/svg11.dtd">
<svg version="1.1" id="Capa_1" xmlns="http://www.w3.org/2000/svg" xmlns:xlink="http://www.w3.org/1999/xlink" x="0px" y="0px"
	 width="382.442px" height="382.442px" viewBox="0 0 382.442 382.442" style="enable-background:new 0 0 382.442 382.442;"
	 xml:space="preserve">
<g>
	<g>
		<path d="M378.133,129.175l-44.828-31.047l15.69-52.227c1.06-3.525,0.097-7.346-2.507-9.949c-2.604-2.602-6.424-3.566-9.947-2.506
			l-52.229,15.691L253.265,4.309c-2.096-3.026-5.687-4.661-9.341-4.244c-3.657,0.412-6.792,2.8-8.162,6.216l-20.294,50.615
			l-54.406-3.677c-3.679-0.25-7.184,1.54-9.142,4.656s-2.047,7.056-0.229,10.257l26.918,47.424l-36.798,40.248
			c-2.482,2.716-3.273,6.577-2.059,10.05c1.216,3.474,4.241,6,7.876,6.574l31.891,5.046L2.929,354.065
			c-3.903,3.904-3.903,10.236,0,14.143l11.307,11.305c1.951,1.952,4.512,2.93,7.069,2.93c2.561,0,5.119-0.978,7.071-2.93
			l176.592-176.592l5.046,31.891c0.575,3.636,3.103,6.66,6.574,7.877c3.473,1.217,7.335,0.425,10.051-2.06l40.247-36.798
			l47.423,26.918c3.201,1.816,7.144,1.729,10.258-0.229c3.115-1.959,4.904-5.47,4.656-9.142l-3.676-54.407l50.614-20.294
			c3.416-1.37,5.804-4.505,6.216-8.162C382.789,134.859,381.159,131.271,378.133,129.175z M296.8,141.963
			c-4.021,1.613-6.548,5.632-6.256,9.956l1.851,27.401l-23.882-13.556c-3.769-2.139-8.485-1.607-11.684,1.316l-20.271,18.531
			l-4.293-27.124c-0.677-4.28-4.031-7.637-8.312-8.314l-27.125-4.293l18.531-20.268c2.925-3.198,3.456-7.916,1.315-11.685
			l-13.557-23.881l27.398,1.85c4.319,0.295,8.345-2.233,9.956-6.255l10.22-25.487l15.636,22.574
			c2.467,3.562,6.944,5.13,11.098,3.883l26.305-7.903l-7.902,26.304c-1.246,4.15,0.32,8.631,3.884,11.099l22.573,15.634
			L296.8,141.963z"/>
	</g>
</g>
<g>
</g>
<g>
</g>
<g>
</g>
<g>
</g>
<g>
</g>
<g>
</g>
<g>
</g>
<g>
</g>
<g>
</g>
<g>
</g>
<g>
</g>
<g>
</g>
<g>
</g>
<g>
</g>
<g>
</g>
</svg>
