<?xml version="1.0" encoding="iso-8859-1"?>
<!-- Generator: Adobe Illustrator 16.0.0, SVG Export Plug-In . SVG Version: 6.00 Build 0)  -->
<!DOCTYPE svg PUBLIC "-//W3C//DTD SVG 1.1//EN" "http://www.w3.org/Graphics/SVG/1.1/DTD/svg11.dtd">
<svg version="1.1" id="Capa_1" xmlns="http://www.w3.org/2000/svg" xmlns:xlink="http://www.w3.org/1999/xlink" x="0px" y="0px"
	 width="391.5px" height="391.5px" viewBox="0 0 391.5 391.5" style="enable-background:new 0 0 391.5 391.5;" xml:space="preserve"
	>
<g>
	<g>
		<path d="M389.5,71.453H364c-1.104,0-2,0.896-2,2v2.25H210.5v-2.25c0-1.104-0.896-2-2-2H183c-1.104,0-2,0.896-2,2v2.25H29.5v-2.25
			c0-1.104-0.896-2-2-2H2c-1.104,0-2,0.896-2,2v25.5c0,1.104,0.896,2,2,2h25.5c1.104,0,2-0.896,2-2v-2.25h110.684
			c-4.089,2.469-8.078,5.185-11.879,8.087c-16.482,12.579-31.898,30.05-45.82,51.928c-19.732,31.008-30.775,61.956-33.857,71.252
			h-3.96c-1.104,0-2,0.896-2,2v16.166c0,1.104,0.896,2,2,2h15.169l22.004,70.509c0.253,0.81,0.989,1.373,1.837,1.401
			c0.024,0.001,0.049,0.001,0.072,0.001c0.819,0,1.56-0.501,1.861-1.268l10.925-27.782l29.579-4.027
			c0.841-0.114,1.518-0.746,1.689-1.578c0.171-0.829-0.2-1.68-0.928-2.116l-64.042-38.552V229.97c0-1.104-0.896-2-2-2h-0.567
			c3.929-11.18,14.422-38.515,31.499-65.349c21.957-34.508,46.822-56.686,73.901-65.92H181v2.25c0,1.104,0.896,2,2,2h25.5
			c1.104,0,2-0.896,2-2v-2.25H362v2.25c0,1.104,0.896,2,2,2h25.5c1.104,0,2-0.896,2-2v-25.5
			C391.5,72.348,390.604,71.453,389.5,71.453z M49.667,241.135v-6.165h6.167v6.165H49.667z"/>
	</g>
</g>
<g>
</g>
<g>
</g>
<g>
</g>
<g>
</g>
<g>
</g>
<g>
</g>
<g>
</g>
<g>
</g>
<g>
</g>
<g>
</g>
<g>
</g>
<g>
</g>
<g>
</g>
<g>
</g>
<g>
</g>
</svg>
