<?xml version="1.0" encoding="iso-8859-1"?>
<!-- Generator: Adobe Illustrator 16.0.0, SVG Export Plug-In . SVG Version: 6.00 Build 0)  -->
<!DOCTYPE svg PUBLIC "-//W3C//DTD SVG 1.1//EN" "http://www.w3.org/Graphics/SVG/1.1/DTD/svg11.dtd">
<svg version="1.1" id="Capa_1" xmlns="http://www.w3.org/2000/svg" xmlns:xlink="http://www.w3.org/1999/xlink" x="0px" y="0px"
	 width="407.646px" height="407.646px" viewBox="0 0 407.646 407.646" style="enable-background:new 0 0 407.646 407.646;"
	 xml:space="preserve">
<g>
	<path d="M352.168,40.031c-9.277-17.682-24.886-30.689-43.947-36.629C300.977,1.145,293.487,0,285.959,0
		c-32.884,0-61.558,21.109-71.35,52.527c-10.779,34.59,4.728,71.824,36.87,88.537l-35.302,113.279l-37.003-43.787
		c9.777-11.758,15.625-26.078,16.914-41.412c1.671-19.896-4.506-39.254-17.394-54.506c-14.232-16.844-35.054-26.504-57.125-26.504
		c-17.619,0-34.742,6.27-48.218,17.656c-31.481,26.604-35.452,73.861-8.849,105.347c14.234,16.842,35.056,26.5,57.126,26.5
		c13.077,0,25.996-3.469,37.358-10.029l47.868,56.645l-24.128,77.422c-1.643,5.273,1.299,10.882,6.572,12.523l6.132,1.91
		c5.274,1.643,10.879-1.299,12.521-6.57l19.122-61.355l81.054,95.919c1.979,2.34,4.802,3.545,7.644,3.545
		c2.28,0,4.572-0.775,6.449-2.361l4.905-4.145c2.026-1.713,3.289-4.158,3.512-6.804c0.222-2.643-0.615-5.266-2.327-7.291
		l-91.917-108.772l40.305-129.33h0.002c3.141,0.395,6.268,0.594,9.291,0.594c32.887,0,61.561-21.109,71.351-52.525
		C363.284,77.947,361.446,57.711,352.168,40.031z"/>
</g>
<g>
</g>
<g>
</g>
<g>
</g>
<g>
</g>
<g>
</g>
<g>
</g>
<g>
</g>
<g>
</g>
<g>
</g>
<g>
</g>
<g>
</g>
<g>
</g>
<g>
</g>
<g>
</g>
<g>
</g>
</svg>
