<?xml version="1.0" encoding="iso-8859-1"?>
<!-- Generator: Adobe Illustrator 16.0.0, SVG Export Plug-In . SVG Version: 6.00 Build 0)  -->
<!DOCTYPE svg PUBLIC "-//W3C//DTD SVG 1.1//EN" "http://www.w3.org/Graphics/SVG/1.1/DTD/svg11.dtd">
<svg version="1.1" id="Capa_1" xmlns="http://www.w3.org/2000/svg" xmlns:xlink="http://www.w3.org/1999/xlink" x="0px" y="0px"
	 width="390.603px" height="390.603px" viewBox="0 0 390.603 390.603" style="enable-background:new 0 0 390.603 390.603;"
	 xml:space="preserve">
<g>
	<g>
		<g>
			<path d="M384.346,114.124L280.986,10.773c-7.86-7.861-20.653-8.379-29.127-1.18L81.543,156.743l156.844,156.906
				c0.405-0.405,147.141-170.398,147.141-170.398C392.727,134.78,392.208,121.986,384.346,114.124z"/>
			<path d="M38.652,304.147l53.1,53.098c38.406-17.246,77.017-28.014,114.761-32L70.648,189.381
				C66.663,227.133,55.897,265.745,38.652,304.147z"/>
			<path d="M5.255,351.527c-4.831,4.831-6.486,11.886-4.318,18.407c2.167,6.523,7.728,11.23,14.513,12.281l23.745,3.682
				c5.657,0.877,11.826-1.392,15.854-5.42l12.228-12.228l-39.375-39.37L5.255,351.527z"/>
		</g>
	</g>
</g>
<g>
</g>
<g>
</g>
<g>
</g>
<g>
</g>
<g>
</g>
<g>
</g>
<g>
</g>
<g>
</g>
<g>
</g>
<g>
</g>
<g>
</g>
<g>
</g>
<g>
</g>
<g>
</g>
<g>
</g>
</svg>
