<?xml version="1.0" encoding="iso-8859-1"?>
<!-- Generator: Adobe Illustrator 16.0.0, SVG Export Plug-In . SVG Version: 6.00 Build 0)  -->
<!DOCTYPE svg PUBLIC "-//W3C//DTD SVG 1.1//EN" "http://www.w3.org/Graphics/SVG/1.1/DTD/svg11.dtd">
<svg version="1.1" id="Capa_1" xmlns="http://www.w3.org/2000/svg" xmlns:xlink="http://www.w3.org/1999/xlink" x="0px" y="0px"
	 width="396px" height="396px" viewBox="0 0 396 396" style="enable-background:new 0 0 396 396;" xml:space="preserve">
<g>
	<path d="M338.006,57.993C300.608,20.596,250.886,0,198,0S95.392,20.596,57.993,57.994C20.596,95.392,0,145.114,0,198
		s20.596,102.607,57.994,140.007C95.392,375.404,145.114,396,198,396c52.886,0,102.608-20.596,140.007-57.994
		C375.404,300.607,396,250.886,396,198S375.404,95.393,338.006,57.993z M363.999,198c0,2.333-0.052,4.705-0.155,7.09
		l-132.851-76.701l83.702-48.328C346.509,111.519,363.999,153.311,363.999,198z M241.788,261.379v96.756
		c-14.228,3.893-28.946,5.864-43.788,5.864c-31.724,0-62.397-8.956-89.02-25.944L241.788,261.379z M197.999,147.437l43.789,25.283
		v50.562L198,248.562l-43.788-25.28V172.72L197.999,147.437z M198,32.001c31.723,0,62.396,8.956,89.02,25.944l-132.808,76.674
		V37.865C168.438,33.973,183.157,32.001,198,32.001z M121.218,50.854v153.378L37.43,155.857
		C49.319,110.557,79.635,72.614,121.218,50.854z M165.007,267.611l-83.701,48.328C49.491,284.479,32.001,242.688,32.001,198
		c0-2.324,0.052-4.695,0.156-7.088L165.007,267.611z M274.783,345.146V191.767l83.787,48.375
		C346.681,285.443,316.366,323.387,274.783,345.146z"/>
</g>
<g>
</g>
<g>
</g>
<g>
</g>
<g>
</g>
<g>
</g>
<g>
</g>
<g>
</g>
<g>
</g>
<g>
</g>
<g>
</g>
<g>
</g>
<g>
</g>
<g>
</g>
<g>
</g>
<g>
</g>
</svg>
