<?xml version="1.0" encoding="iso-8859-1"?>
<!-- Generator: Adobe Illustrator 16.0.0, SVG Export Plug-In . SVG Version: 6.00 Build 0)  -->
<!DOCTYPE svg PUBLIC "-//W3C//DTD SVG 1.1//EN" "http://www.w3.org/Graphics/SVG/1.1/DTD/svg11.dtd">
<svg version="1.1" id="Capa_1" xmlns="http://www.w3.org/2000/svg" xmlns:xlink="http://www.w3.org/1999/xlink" x="0px" y="0px"
	 width="418px" height="418px" viewBox="0 0 418 418" style="enable-background:new 0 0 418 418;" xml:space="preserve">
<g>
	<g>
		<path d="M251.243,274.297c3.146,3.146,7.876,4.087,11.988,2.385c4.109-1.703,6.79-5.714,6.79-10.162V151.481
			c0-4.449-2.681-8.46-6.79-10.163c-1.362-0.563-2.79-0.837-4.208-0.837c-2.862,0-5.676,1.117-7.78,3.222l-57.519,57.519
			c-2.063,2.063-3.223,4.861-3.223,7.778s1.16,5.716,3.223,7.777L251.243,274.297z"/>
		<path d="M150.055,276.682c-4.109,1.7-8.84,0.764-11.988-2.385l-57.52-57.52c-2.063-2.062-3.221-4.86-3.221-7.777
			s1.158-5.716,3.221-7.778l57.52-57.519c2.105-2.104,4.918-3.222,7.781-3.222c1.416,0,2.846,0.273,4.207,0.837
			c4.111,1.703,6.791,5.714,6.791,10.163v115.037C156.846,270.968,154.166,274.979,150.055,276.682z"/>
		<path d="M329.674,0h-6c-6.075,0-11,4.925-11,11v35c0,6.075,4.925,11,11,11h6c6.075,0,11-4.925,11-11V11
			C340.674,4.925,335.749,0,329.674,0z"/>
		<path d="M329.674,95.352h-6c-6.075,0-11,4.925-11,11v72.473c0,6.075,4.925,11,11,11h6c6.075,0,11-4.925,11-11v-72.473
			C340.674,100.276,335.749,95.352,329.674,95.352z"/>
		<path d="M329.674,228.176h-6c-6.075,0-11,4.926-11,11v72.473c0,6.076,4.925,11,11,11h6c6.075,0,11-4.924,11-11v-72.473
			C340.674,233.102,335.749,228.176,329.674,228.176z"/>
		<path d="M329.674,361h-6c-6.075,0-11,4.925-11,11v35c0,6.075,4.925,11,11,11h6c6.075,0,11-4.925,11-11v-35
			C340.674,365.925,335.749,361,329.674,361z"/>
	</g>
</g>
<g>
</g>
<g>
</g>
<g>
</g>
<g>
</g>
<g>
</g>
<g>
</g>
<g>
</g>
<g>
</g>
<g>
</g>
<g>
</g>
<g>
</g>
<g>
</g>
<g>
</g>
<g>
</g>
<g>
</g>
</svg>
