<?xml version="1.0" encoding="iso-8859-1"?>
<!-- Generator: Adobe Illustrator 16.0.0, SVG Export Plug-In . SVG Version: 6.00 Build 0)  -->
<!DOCTYPE svg PUBLIC "-//W3C//DTD SVG 1.1//EN" "http://www.w3.org/Graphics/SVG/1.1/DTD/svg11.dtd">
<svg version="1.1" id="Capa_1" xmlns="http://www.w3.org/2000/svg" xmlns:xlink="http://www.w3.org/1999/xlink" x="0px" y="0px"
	 width="391.985px" height="391.985px" viewBox="0 0 391.985 391.985" style="enable-background:new 0 0 391.985 391.985;"
	 xml:space="preserve">
<g>
	<g>
		<g>
			<path d="M387.485,141.042H250.944V4.5c0-2.485-2.017-4.5-4.5-4.5H4.5C2.016,0,0,2.015,0,4.5v241.943c0,2.483,2.015,4.5,4.5,4.5
				h136.541v136.542c0,2.483,2.015,4.5,4.5,4.5h241.943c2.483,0,4.5-2.017,4.5-4.5V145.542
				C391.985,143.057,389.97,141.042,387.485,141.042z M250.944,246.444v-76.401h112.041v192.943H170.042V250.944h76.402
				C248.93,250.944,250.944,248.93,250.944,246.444z M201.438,221.944H29V49.507L201.438,221.944z M49.505,29h172.438v172.438
				L49.505,29z"/>
			<path d="M279.677,29.368l17.905,15.072c1.23,1.035,2.919,1.335,4.432,0.788s2.615-1.86,2.897-3.443l0.281-1.585l0.574,0.238
				c20.953,8.687,37.95,25.685,46.639,46.636l0.237,0.575l-1.585,0.282c-1.583,0.282-2.896,1.386-3.442,2.898
				c-0.547,1.512-0.247,3.201,0.789,4.431l15.071,17.905c0.862,1.026,2.129,1.602,3.441,1.602c0.263,0,0.525-0.023,0.788-0.069
				c1.583-0.282,2.896-1.386,3.442-2.898l7.973-22.005c0.548-1.511,0.248-3.2-0.788-4.431c-1.035-1.229-2.646-1.813-4.229-1.532
				l-1.999,0.355l-0.146-0.394c-10.711-29.272-33.642-52.202-62.911-62.909l-0.394-0.144l0.354-2.001
				c0.281-1.583-0.303-3.195-1.532-4.23c-1.229-1.035-2.918-1.335-4.432-0.788l-22.005,7.973c-1.511,0.548-2.615,1.86-2.896,3.443
				C277.864,26.72,278.448,28.332,279.677,29.368z"/>
		</g>
	</g>
</g>
<g>
</g>
<g>
</g>
<g>
</g>
<g>
</g>
<g>
</g>
<g>
</g>
<g>
</g>
<g>
</g>
<g>
</g>
<g>
</g>
<g>
</g>
<g>
</g>
<g>
</g>
<g>
</g>
<g>
</g>
</svg>
