<?xml version="1.0" encoding="iso-8859-1"?>
<!-- Generator: Adobe Illustrator 16.0.0, SVG Export Plug-In . SVG Version: 6.00 Build 0)  -->
<!DOCTYPE svg PUBLIC "-//W3C//DTD SVG 1.1//EN" "http://www.w3.org/Graphics/SVG/1.1/DTD/svg11.dtd">
<svg version="1.1" id="Capa_1" xmlns="http://www.w3.org/2000/svg" xmlns:xlink="http://www.w3.org/1999/xlink" x="0px" y="0px"
	 width="356.741px" height="356.741px" viewBox="0 0 356.741 356.741" style="enable-background:new 0 0 356.741 356.741;"
	 xml:space="preserve">
<g>
	<path d="M349.773,263.364l-14.274-14.274c-2.25-2.25-5.303-3.515-8.485-3.515c-2.185,0-4.308,0.596-6.151,1.696L198.217,124.628
		c2.757-4.608,2.15-10.669-1.819-14.64l-14.274-14.274c-2.25-2.25-5.302-3.515-8.484-3.515s-6.235,1.265-8.485,3.515l-22.666,22.665
		L27.621,3.514c-3.114-3.113-7.685-4.271-11.905-3.017C11.495,1.752,8.3,5.219,7.393,9.529L3.711,27.026
		c-0.835,3.968,0.39,8.089,3.257,10.955l107.96,107.958l-22.666,22.666c-4.686,4.688-4.686,12.284,0,16.972l14.274,14.272
		c2.25,2.251,5.303,3.516,8.486,3.516c2.185,0,4.308-0.597,6.153-1.697l122.644,122.645c-2.758,4.608-2.152,10.67,1.818,14.641
		l14.274,14.273c2.343,2.343,5.414,3.515,8.485,3.515c3.07,0,6.142-1.172,8.484-3.515l72.892-72.892
		C354.458,275.647,354.458,268.05,349.773,263.364z M256.224,259.678c-1.652,1.653-3.767,2.527-6.112,2.527
		c-2.348,0-4.461-0.874-6.114-2.527l-90.16-90.16l12.228-12.227l90.161,90.16c1.652,1.65,2.525,3.766,2.525,6.111
		C258.752,255.91,257.878,258.024,256.224,259.678z"/>
</g>
<g>
</g>
<g>
</g>
<g>
</g>
<g>
</g>
<g>
</g>
<g>
</g>
<g>
</g>
<g>
</g>
<g>
</g>
<g>
</g>
<g>
</g>
<g>
</g>
<g>
</g>
<g>
</g>
<g>
</g>
</svg>
