<?xml version="1.0" encoding="iso-8859-1"?>
<!-- Generator: Adobe Illustrator 16.0.0, SVG Export Plug-In . SVG Version: 6.00 Build 0)  -->
<!DOCTYPE svg PUBLIC "-//W3C//DTD SVG 1.1//EN" "http://www.w3.org/Graphics/SVG/1.1/DTD/svg11.dtd">
<svg version="1.1" id="Capa_1" xmlns="http://www.w3.org/2000/svg" xmlns:xlink="http://www.w3.org/1999/xlink" x="0px" y="0px"
	 width="432.779px" height="432.779px" viewBox="0 0 432.779 432.779" style="enable-background:new 0 0 432.779 432.779;"
	 xml:space="preserve">
<g>
	<g>
		<g>
			<path d="M75.914,230.788l82.605-91.982l32.408,36.082c11.547-6.807,23.896-12.385,36.873-16.557L165.959,89.47
				c-1.896-2.113-4.602-3.318-7.439-3.318c-2.84,0-5.543,1.205-7.441,3.318L2.559,254.849c-2.637,2.936-3.299,7.148-1.691,10.754
				c1.607,3.604,5.186,5.928,9.133,5.928h100.904c5.189-14.504,12.145-28.176,20.619-40.742L75.914,230.788L75.914,230.788z"/>
			<path d="M279.105,174.208c-84.736,0-153.674,68.938-153.674,153.677v8.742c0,5.522,4.477,10,10,10h287.348
				c5.521,0,10-4.478,10-10v-8.742C432.779,243.148,363.842,174.208,279.105,174.208z M164.426,309.148
				c4.375-26.887,18.25-51.541,39.072-69.424c21.051-18.076,47.9-28.032,75.607-28.032c27.704,0,54.558,9.956,75.604,28.032
				c20.821,17.883,34.698,42.537,39.071,69.424H164.426z"/>
		</g>
	</g>
</g>
<g>
</g>
<g>
</g>
<g>
</g>
<g>
</g>
<g>
</g>
<g>
</g>
<g>
</g>
<g>
</g>
<g>
</g>
<g>
</g>
<g>
</g>
<g>
</g>
<g>
</g>
<g>
</g>
<g>
</g>
</svg>
