<?xml version="1.0" encoding="iso-8859-1"?>
<!-- Generator: Adobe Illustrator 16.0.0, SVG Export Plug-In . SVG Version: 6.00 Build 0)  -->
<!DOCTYPE svg PUBLIC "-//W3C//DTD SVG 1.1//EN" "http://www.w3.org/Graphics/SVG/1.1/DTD/svg11.dtd">
<svg version="1.1" id="Capa_1" xmlns="http://www.w3.org/2000/svg" xmlns:xlink="http://www.w3.org/1999/xlink" x="0px" y="0px"
	 width="402.159px" height="402.159px" viewBox="0 0 402.159 402.159" style="enable-background:new 0 0 402.159 402.159;"
	 xml:space="preserve">
<g>
	<g>
		<g>
			<path d="M399.269,125.531c-2.823-3.863-7.321-6.146-12.106-6.146H15.001c-4.193,0-8.194,1.755-11.035,4.84
				c-2.84,3.084-4.26,7.217-3.915,11.396l19.008,230c0.643,7.779,7.144,13.766,14.949,13.766h279.969
				c6.531,0,12.313-4.229,14.294-10.451l73.183-230.001C402.904,134.374,402.093,129.394,399.269,125.531z M57.941,338.393
				L43.228,160.377h82.413L68.999,338.394L57.941,338.393L57.941,338.393z"/>
			<path d="M147.172,75.373l44.91,0.002l-9.296,23.404c-0.722,1.816-0.241,3.891,1.208,5.201c1.449,1.313,3.56,1.588,5.296,0.69
				l70.667-36.526c1.556-0.805,2.533-2.41,2.532-4.161c0.001-1.751-0.979-3.355-2.532-4.162L189.29,23.295
				c-1.736-0.897-3.847-0.623-5.295,0.69c-1.448,1.312-1.932,3.386-1.208,5.2l9.296,23.407h-44.911
				c-2.586,0-4.685,2.097-4.685,4.684v13.411c0,1.243,0.494,2.435,1.373,3.313C144.739,74.88,145.93,75.375,147.172,75.373z"/>
		</g>
	</g>
</g>
<g>
</g>
<g>
</g>
<g>
</g>
<g>
</g>
<g>
</g>
<g>
</g>
<g>
</g>
<g>
</g>
<g>
</g>
<g>
</g>
<g>
</g>
<g>
</g>
<g>
</g>
<g>
</g>
<g>
</g>
</svg>
