<?xml version="1.0" encoding="iso-8859-1"?>
<!-- Generator: Adobe Illustrator 16.0.0, SVG Export Plug-In . SVG Version: 6.00 Build 0)  -->
<!DOCTYPE svg PUBLIC "-//W3C//DTD SVG 1.1//EN" "http://www.w3.org/Graphics/SVG/1.1/DTD/svg11.dtd">
<svg version="1.1" id="Capa_1" xmlns="http://www.w3.org/2000/svg" xmlns:xlink="http://www.w3.org/1999/xlink" x="0px" y="0px"
	 width="339.998px" height="339.999px" viewBox="0 0 339.998 339.999" style="enable-background:new 0 0 339.998 339.999;"
	 xml:space="preserve">
<g>
	<g>
		<path d="M192.511,64.521c-2.746-2.745-7.162-2.862-10.046-0.268c-14.862,13.354-93,81.184-171.942,105.162l-0.855,0.259
			c-2.051,0.623-3.727,2.114-4.582,4.082c-0.854,1.969-0.801,4.209,0.146,6.133l0.395,0.799c0.004,0.011,0.008,0.019,0.015,0.027
			c0.271,0.564,11.653,24.328,13.133,57.811c0.916,20.82-2.101,40.832-8.945,59.519c-2.442,0.19-4.834,1.215-6.703,3.084
			c-4.168,4.167-4.166,10.921,0,15.087s10.92,4.167,15.086,0c2.408-2.409,3.416-5.682,3.039-8.82l76.486-76.489
			c1.908-1.907,2.609-4.71,1.824-7.289c-2.703-8.89-0.291-18.509,6.299-25.097c4.756-4.758,11.078-7.377,17.809-7.377
			s13.058,2.619,17.813,7.377c4.758,4.756,7.375,11.08,7.375,17.808s-2.617,13.051-7.377,17.81
			c-4.754,4.754-11.074,7.371-17.799,7.372c-2.494,0-4.953-0.362-7.31-1.075c-2.582-0.783-5.379-0.08-7.283,1.824l-76.479,76.489
			c-3.142-0.378-6.416,0.628-8.826,3.038c-4.166,4.166-4.164,10.921,0,15.087c4.166,4.166,10.922,4.167,15.088,0
			c1.869-1.869,2.892-4.258,3.084-6.702c16.48-6.036,34.014-9.105,52.15-9.105c2.276,0,4.604,0.049,6.922,0.145
			c33.588,1.385,58.088,13.064,58.315,13.173l0.775,0.382c1.014,0.498,2.117,0.749,3.221,0.748c0.99,0.001,1.98-0.2,2.91-0.603
			c1.963-0.855,3.457-2.529,4.08-4.579l0.258-0.854c23.979-78.943,91.807-157.083,105.16-171.944
			c2.594-2.888,2.477-7.3-0.271-10.046L192.511,64.521z"/>
		<path d="M337.857,86.974L253.02,2.139C251.65,0.769,249.792,0,247.855,0c-1.937-0.001-3.796,0.768-5.164,2.137l-36.295,36.299
			c-2.854,2.853-2.854,7.477,0,10.329l84.84,84.834c1.369,1.371,3.225,2.14,5.164,2.14c1.936,0,3.793-0.771,5.162-2.14
			l36.297-36.297C340.711,94.451,340.711,89.827,337.857,86.974z"/>
	</g>
</g>
<g>
</g>
<g>
</g>
<g>
</g>
<g>
</g>
<g>
</g>
<g>
</g>
<g>
</g>
<g>
</g>
<g>
</g>
<g>
</g>
<g>
</g>
<g>
</g>
<g>
</g>
<g>
</g>
<g>
</g>
</svg>
