<?xml version="1.0" encoding="iso-8859-1"?>
<!-- Generator: Adobe Illustrator 16.0.0, SVG Export Plug-In . SVG Version: 6.00 Build 0)  -->
<!DOCTYPE svg PUBLIC "-//W3C//DTD SVG 1.1//EN" "http://www.w3.org/Graphics/SVG/1.1/DTD/svg11.dtd">
<svg version="1.1" id="Capa_1" xmlns="http://www.w3.org/2000/svg" xmlns:xlink="http://www.w3.org/1999/xlink" x="0px" y="0px"
	 width="400px" height="400px" viewBox="0 0 400 400" style="enable-background:new 0 0 400 400;" xml:space="preserve">
<g>
	<g>
		<path d="M390,0H10C4.478,0,0,4.477,0,10v380c0,5.523,4.478,10,10,10h380c5.522,0,10-4.477,10-10V10C400,4.478,395.522,0,390,0z
			 M40,40h72.918c-16.474,35.443-18.849,66.198-15.167,95.45c-16.926-0.546-35.836-2.901-57.751-7.874V40z M40,158.287
			c24.021,5.041,44.829,7.142,63.453,7.298c2.599,10.736,5.655,21.417,8.744,32.211c2.737,9.563,5.55,19.401,8.156,29.659
			c-22.106-0.698-47.817,1.876-80.353,10.266V158.287L40,158.287z M127.252,360H40v-91.223
			c36.843-10.233,63.87-12.536,86.952-10.869C132.051,287.173,133.859,320.305,127.252,360z M141.039,189.541
			c-2.502-8.743-4.919-17.191-7.048-25.479c23.288-2.52,43.387-7.776,63.164-12.969c12.128-3.184,24.083-6.32,36.661-8.733
			c-5.433,32.492-10.736,68.083-11.562,105.494c-10.485-2.27-20.297-4.918-30.031-7.545c-13.183-3.558-26.153-7.057-40.146-9.521
			C148.695,216.309,144.8,202.682,141.039,189.541z M157.625,360c5.731-37.417,4.703-69.175,0.564-97.373
			c8.789,1.943,17.376,4.262,26.215,6.646c11.983,3.232,24.42,6.586,38.25,9.293c1.332,26.575,5.392,53.862,13.635,81.434H157.625z
			 M239.117,110.969c-17.689,2.738-33.724,6.945-49.581,11.108c-19.88,5.22-39.244,10.303-61.633,12.448
			c-4.122-29.401-1.172-58.784,18.67-94.525h98.568C247.128,58.353,243.771,82.874,239.117,110.969z M360,360h-92.241
			c-8.59-25.816-13.021-51.676-14.705-77.064c8.59,0.778,17.75,1.229,27.637,1.229c22.251,0,48.158-2.278,79.312-8.138L360,360
			L360,360z M360,245.477c-46.637,9.261-80.26,10.136-107.734,7.25c0.472-40.657,6.731-79.521,12.646-114.375
			c25.826-1.58,55.87,1.097,95.088,12.259V245.477z M360,119.506c-35.882-9.483-64.904-12.3-90.012-11.463
			c4.089-25.598,6.841-48.52,5.276-68.043H360V119.506z"/>
	</g>
</g>
<g>
</g>
<g>
</g>
<g>
</g>
<g>
</g>
<g>
</g>
<g>
</g>
<g>
</g>
<g>
</g>
<g>
</g>
<g>
</g>
<g>
</g>
<g>
</g>
<g>
</g>
<g>
</g>
<g>
</g>
</svg>
